<svg version="1.1" viewBox="0.0 0.0 243.45931758530185 191.9711286089239" fill="none" stroke="none" stroke-linecap="square" stroke-miterlimit="10" xmlns:xlink="http://www.w3.org/1999/xlink" xmlns="http://www.w3.org/2000/svg"><clipPath id="p.0"><path d="m0 0l243.45932 0l0 191.97113l-243.45932 0l0 -191.97113z" clip-rule="nonzero"/></clipPath><g clip-path="url(#p.0)"><path fill="#000000" fill-opacity="0.0" d="m0 0l243.45932 0l0 191.97113l-243.45932 0z" fill-rule="evenodd"/><path fill="#000000" fill-opacity="0.0" d="m15.049264 173.60046l19.78188 -36.48346l0 0c-26.939688 -35.99411 -16.409 -83.02531 24.328487 -108.65368c40.737488 -25.628376 98.34968 -21.466574 133.09839 9.614794c34.74872 31.081367 35.261795 78.91034 1.1853333 110.49676c-34.076447 31.58641 -91.59029 36.593018 -132.87117 11.566498z" fill-rule="evenodd"/><path stroke="#000000" stroke-width="12.0" stroke-linejoin="round" stroke-linecap="butt" d="m15.049264 173.60046l19.78188 -36.48346l0 0c-26.939688 -35.99411 -16.409 -83.02531 24.328487 -108.65368c40.737488 -25.628376 98.34968 -21.466574 133.09839 9.614794c34.74872 31.081367 35.261795 78.91034 1.1853333 110.49676c-34.076447 31.58641 -91.59029 36.593018 -132.87117 11.566498z" fill-rule="evenodd"/><path fill="#000000" d="m72.55559 93.24614q0.5 -2.0 2.5 -5.5q2.5 -3.5 4.5 -6.0q5.0 -4.0 9.5 -4.0q6.5 0 6.5 6.0q1.0 8.0 3.5 18.5q1.5 5.0 4.5 5.0q2.0 0 3.5 -2.5q6.5 -6.0 13.5 -13.0q11.0 -10.5 15.0 -15.5q5.0 -6.0 13.5 -14.0q8.5 -7.5 13.0 -10.5q4.0 -2.5 7.0 -2.0q3.0 0.5 2.5 4.5q-0.5 4.0 0 8.0q0.5 3.0 0 3.5q-10.0 12.0 -16.0 17.5q-14.5 17.0 -19.5 21.0q-19.0 18.5 -33.0 32.0q-5.0 4.5 -9.5 5.0q-6.0 0.5 -11.5 -4.5q-6.5 -5.5 -7.0 -13.0q-0.5 -8.5 -1.5 -12.5q-1.5 -7.0 -1.0 -18.0z" fill-rule="nonzero"/></g></svg>