<svg version="1.1" viewBox="0.0 0.0 243.45931758530185 191.9711286089239" fill="none" stroke="none" stroke-linecap="square" stroke-miterlimit="10" xmlns:xlink="http://www.w3.org/1999/xlink" xmlns="http://www.w3.org/2000/svg"><clipPath id="p.0"><path d="m0 0l243.45932 0l0 191.97113l-243.45932 0l0 -191.97113z" clip-rule="nonzero"/></clipPath><g clip-path="url(#p.0)"><path fill="#000000" fill-opacity="0.0" d="m0 0l243.45932 0l0 191.97113l-243.45932 0z" fill-rule="evenodd"/><path fill="#000000" fill-opacity="0.0" d="m221.01143 176.66946l-43.208252 -13.786224l0 0c-41.99173 23.285492 -98.592155 16.488235 -130.76099 -15.703354c-32.168823 -32.191574 -29.378199 -79.24218 6.447033 -108.698524c35.825233 -29.45634 92.9606 -31.678282 131.99683 -5.133232c39.03621 26.545048 47.197952 73.16973 18.855637 107.71454z" fill-rule="evenodd"/><path stroke="#000000" stroke-width="12.0" stroke-linejoin="round" stroke-linecap="butt" d="m221.01143 176.66946l-43.208252 -13.786224l0 0c-41.99173 23.285492 -98.592155 16.488235 -130.76099 -15.703354c-32.168823 -32.191574 -29.378199 -79.24218 6.447033 -108.698524c35.825233 -29.45634 92.9606 -31.678282 131.99683 -5.133232c39.03621 26.545048 47.197952 73.16973 18.855637 107.71454z" fill-rule="evenodd"/><path fill="#000000" d="m76.93287 95.13328q0.5 -2.0 2.5 -5.5q2.5 -3.5 4.5 -6.0q5.0 -4.0 9.5 -4.0q6.5 0 6.5 6.0q1.0 8.0 3.5 18.5q1.5 5.0 4.5 5.0q2.0 0 3.5 -2.5q6.5 -6.0 13.5 -13.0q10.999992 -10.5 14.999992 -15.5q5.0 -6.0 13.5 -14.0q8.5 -7.5 13.0 -10.5q4.0 -2.5 7.0 -2.0q3.0 0.5 2.5 4.5q-0.5 4.0 0 8.0q0.5 3.0 0 3.5q-10.0 12.0 -16.0 17.5q-14.5 17.0 -19.5 21.0q-18.999992 18.5 -32.999992 32.000008q-5.0 4.5 -9.5 5.0q-6.0 0.5 -11.5 -4.5q-6.5 -5.5 -7.0 -13.000008q-0.5 -8.5 -1.5 -12.5q-1.5 -7.0 -1.0 -18.0z" fill-rule="nonzero"/></g></svg>